<svg width="27" height="26" viewBox="0 0 27 26" fill="none" xmlns="http://www.w3.org/2000/svg">
<path d="M16.4545 1.76777C15.0876 0.400933 12.8715 0.400932 11.5047 1.76777L2.74735 10.5251C1.38052 11.892 1.38052 14.108 2.74735 15.4749L11.5047 24.2322C12.8715 25.5991 15.0876 25.5991 16.4545 24.2322L25.2118 15.4749C26.5786 14.108 26.5786 11.892 25.2118 10.5251L16.4545 1.76777Z" fill="#A2A2A2"/>
<path d="M16.4545 1.76777C15.0876 0.400933 12.8715 0.400932 11.5047 1.76777L2.74735 10.5251C1.38052 11.892 1.38052 14.108 2.74735 15.4749L11.5047 24.2322C12.8715 25.5991 15.0876 25.5991 16.4545 24.2322L25.2118 15.4749C26.5786 14.108 26.5786 11.892 25.2118 10.5251L16.4545 1.76777Z" fill="url(#paint0_diamond_49_793)"/>
<path d="M16.4545 1.76777C15.0876 0.400933 12.8715 0.400932 11.5047 1.76777L2.74735 10.5251C1.38052 11.892 1.38052 14.108 2.74735 15.4749L11.5047 24.2322C12.8715 25.5991 15.0876 25.5991 16.4545 24.2322L25.2118 15.4749C26.5786 14.108 26.5786 11.892 25.2118 10.5251L16.4545 1.76777Z" stroke="#323131"/>
<defs>
<radialGradient id="paint0_diamond_49_793" cx="0" cy="0" r="1" gradientUnits="userSpaceOnUse" gradientTransform="translate(13.9892 11.96) rotate(180) scale(25.5189 57.2642)">
<stop stop-color="#FF00FF"/>
<stop offset="1" stop-opacity="0"/>
</radialGradient>
</defs>
</svg>
