<svg width="28" height="28" viewBox="0 0 28 28" fill="none" xmlns="http://www.w3.org/2000/svg">
<path d="M15.7474 2.06066C14.771 1.08435 13.1881 1.08435 12.2118 2.06066L2.04024 12.2322C1.06393 13.2085 1.06393 14.7915 2.04024 15.7678L12.2118 25.9393C13.1881 26.9157 14.771 26.9156 15.7474 25.9393L25.9189 15.7678C26.8952 14.7915 26.8952 13.2085 25.9189 12.2322L15.7474 2.06066Z" fill="#C4C4C4"/>
<path d="M15.7474 2.06066C14.771 1.08435 13.1881 1.08435 12.2118 2.06066L2.04024 12.2322C1.06393 13.2085 1.06393 14.7915 2.04024 15.7678L12.2118 25.9393C13.1881 26.9157 14.771 26.9156 15.7474 25.9393L25.9189 15.7678C26.8952 14.7915 26.8952 13.2085 25.9189 12.2322L15.7474 2.06066Z" fill="url(#paint0_diamond_49_781)"/>
<path d="M15.7474 2.06066C14.771 1.08435 13.1881 1.08435 12.2118 2.06066L2.04024 12.2322C1.06393 13.2085 1.06393 14.7915 2.04024 15.7678L12.2118 25.9393C13.1881 26.9157 14.771 26.9156 15.7474 25.9393L25.9189 15.7678C26.8952 14.7915 26.8952 13.2085 25.9189 12.2322L15.7474 2.06066Z" stroke="#353535"/>
<defs>
<radialGradient id="paint0_diamond_49_781" cx="0" cy="0" r="1" gradientUnits="userSpaceOnUse" gradientTransform="translate(13.9892 12.96) rotate(-178.383) scale(20.7366 46.5329)">
<stop stop-color="#FFFF00"/>
<stop offset="1"/>
</radialGradient>
</defs>
</svg>
